<?xml version="1.0" encoding="utf-8"?>
<!-- Generator: Adobe Illustrator 17.0.0, SVG Export Plug-In . SVG Version: 6.00 Build 0)  -->
<!DOCTYPE svg PUBLIC "-//W3C//DTD SVG 1.1//EN" "http://www.w3.org/Graphics/SVG/1.1/DTD/svg11.dtd">
<svg version="1.1" id="Layer_1" xmlns="http://www.w3.org/2000/svg" xmlns:xlink="http://www.w3.org/1999/xlink" x="0px" y="0px"
	 width="460px" height="320px" viewBox="0 0 460 320" enable-background="new 0 0 460 320" xml:space="preserve">
<g>
	<path fill="#00AEEF" d="M370,160c0,77.32-62.68,140-140,140S90,237.32,90,160c0-77.319,62.68-140,140-140S370,82.681,370,160"/>
	<g>
		<rect x="156" y="141" fill="#394552" width="148" height="87"/>
		<rect x="230" y="141" opacity="0.4" enable-background="new    " width="74" height="87"/>
		<path fill="#FFD99C" d="M292,197.004c0,22.64-27.758,40.996-62.002,40.996C195.759,238,168,219.644,168,197.004
			C168,174.356,195.759,156,229.998,156C264.242,156,292,174.356,292,197.004z"/>
		<path fill="#ED5F5F" d="M255,198c0,13.252-10.748,24-24,24s-24-10.748-24-24H255z"/>
		<rect x="168" y="117" fill="#FFD99C" width="124" height="80"/>
		<g>
			<circle fill="#411826" cx="202.5" cy="178.5" r="7.5"/>
			<circle fill="#411826" cx="256.5" cy="178.5" r="7.5"/>
		</g>
		<g>
			<path fill="#394552" d="M304,138.705c0-14.257-5.458-28.513-16.376-39.39C276.707,88.438,262.397,83,248.089,83h-36.178
				c-14.309,0-28.618,5.438-39.535,16.315C161.458,110.192,156,124.448,156,138.705V161h70.532c8.885,0,17.769-3.377,24.546-10.13
				c6.778-6.752,10.166-15.603,10.166-24.455v-2.279h0.823v13.921c0,5.872,2.248,11.744,6.744,16.223
				c4.497,4.48,10.391,6.721,16.284,6.721H304V138.705z"/>
		</g>
		<g>
			<path opacity="0.4" enable-background="new    " d="M226.532,161c8.885,0,17.769-3.377,24.546-10.13
				c6.778-6.752,10.166-15.603,10.166-24.455v-2.279h0.823v13.921c0,5.872,2.248,11.744,6.744,16.223
				c4.497,4.48,10.391,6.721,16.284,6.721H304v-22.295c0-14.257-5.458-28.513-16.376-39.39C276.707,88.438,262.397,83,248.089,83
				h-1.557L214,161H226.532z"/>
		</g>
	</g>
</g>
</svg>
