<?xml version="1.0" standalone="no"?>
<!-- Generator: Adobe Illustrator 17.0.0, SVG Export Plug-In . SVG Version: 6.00 Build 0)  -->
<!DOCTYPE svg PUBLIC "-//W3C//DTD SVG 1.1//EN" "http://www.w3.org/Graphics/SVG/1.1/DTD/svg11.dtd">
<svg version="1.1" id="Layer_1" xmlns="http://www.w3.org/2000/svg" xmlns:xlink="http://www.w3.org/1999/xlink" x="0px" y="0px"
	 width="720px" height="520px" viewBox="0 0 720 520" enable-background="new 0 0 720 520" xml:space="preserve">
<path fill="#202B33" d="M670,279.021c0,4.09-1.561,8.18-4.679,11.3c-3.117,3.118-7.206,4.679-11.293,4.679H255.972
	c-4.088,0-8.176-1.561-11.294-4.679c-3.118-3.12-4.678-7.21-4.678-11.3V15.979c0-4.09,1.56-8.179,4.678-11.299
	s7.206-4.681,11.294-4.681h398.056c4.087,0,8.176,1.561,11.293,4.681C668.439,7.8,670,11.889,670,15.979V279.021z"/>

<style>
  <!--   #message > .base:hover {
		fill: #ff00ff;
	} -->

</style>

<path fill="#202B33" d="M255.971,294c-3.999,0-7.758-1.559-10.587-4.386c-2.828-2.83-4.385-6.593-4.385-10.594V15.979
	c0-4,1.557-7.762,4.386-10.592C248.213,2.558,251.973,1,255.971,1h398.057c3.999,0,7.759,1.558,10.586,4.387
	C667.442,8.216,669,11.978,669,15.979v263.042c0,4.002-1.558,7.765-4.386,10.594c-2.827,2.827-6.587,4.386-10.586,4.386L255.971,294
	L255.971,294z"/>
<rect x="191" y="286" fill="#D6D6D6" width="528" height="12"/>
<path fill="#A6A6A6" d="M492,286.033c0,1.525-0.604,3.055-1.809,4.22S487.405,292,485.825,292H424.21
	c-1.59,0-3.179-0.587-4.392-1.757C418.607,289.071,418,287.536,418,286v0.041h74V286.033z"/>
<path fill="#A6A6A6" d="M719,298c0,1.277-0.481,2.559-1.44,3.535c-0.958,0.977-2.215,1.465-3.472,1.465H195.912
	c-1.257,0-2.514-0.488-3.473-1.465c-0.96-0.977-1.439-2.258-1.439-3.535H719z"/>
<rect x="257" y="20" fill="#BDBDBD" width="396" height="22"/>
<rect x="257.307" y="124.018" fill="#BDBDBD" width="395.386" height="15.963"/>
<rect x="257" y="59" fill="#FFFFFF" width="396" height="210"/>
<rect x="257" y="42" fill="#D6D6D6" width="396" height="24"/>
<rect x="315.019" y="56.483" fill="#757575" width="1.228" height="4.912"/>
<rect x="327.296" y="56.483" fill="#757575" width="1.228" height="4.912"/>
<rect x="339.577" y="56.483" fill="#757575" width="1.228" height="4.912"/>
<rect x="351.855" y="56.483" fill="#757575" width="1.229" height="4.912"/>
<rect x="364.134" y="56.483" fill="#757575" width="1.229" height="4.912"/>
<rect x="265.901" y="56.483" fill="#757575" width="1.228" height="4.912"/>
<rect x="278.181" y="56.483" fill="#757575" width="1.228" height="4.912"/>
<rect x="290.46" y="56.483" fill="#757575" width="1.228" height="4.912"/>
<rect x="302.739" y="56.483" fill="#757575" width="1.227" height="4.912"/>
<rect x="376.415" y="56.483" fill="#757575" width="1.227" height="4.912"/>
<rect x="388.694" y="56.483" fill="#757575" width="1.227" height="4.912"/>
<rect x="400.97" y="56.483" fill="#757575" width="1.229" height="4.912"/>
<rect x="450.087" y="56.483" fill="#757575" width="1.229" height="4.912"/>
<rect x="462.368" y="56.483" fill="#757575" width="1.227" height="4.912"/>
<rect x="474.646" y="56.483" fill="#757575" width="1.228" height="4.912"/>
<rect x="486.924" y="56.483" fill="#757575" width="1.229" height="4.912"/>
<rect x="499.205" y="56.483" fill="#757575" width="1.227" height="4.912"/>
<rect x="413.251" y="56.483" fill="#757575" width="1.226" height="4.912"/>
<rect x="425.53" y="56.483" fill="#757575" width="1.227" height="4.912"/>
<rect x="437.808" y="56.483" fill="#757575" width="1.229" height="4.912"/>
<rect x="511.483" y="56.483" fill="#757575" width="1.229" height="4.912"/>
<rect x="523.762" y="56.483" fill="#757575" width="1.227" height="4.912"/>
<rect x="536.042" y="56.483" fill="#757575" width="1.227" height="4.912"/>
<rect x="560.598" y="56.483" fill="#757575" width="1.229" height="4.912"/>
<rect x="572.878" y="56.483" fill="#757575" width="1.229" height="4.912"/>
<rect x="585.159" y="56.483" fill="#757575" width="1.226" height="4.912"/>
<rect x="597.437" y="56.483" fill="#757575" width="1.228" height="4.912"/>
<rect x="609.716" y="56.483" fill="#757575" width="1.227" height="4.912"/>
<rect x="536.042" y="56.483" fill="#757575" width="1.227" height="4.912"/>
<rect x="548.322" y="56.483" fill="#757575" width="1.226" height="4.912"/>
<rect x="621.995" y="56.483" fill="#757575" width="1.229" height="4.912"/>
<rect x="634.274" y="56.483" fill="#757575" width="1.228" height="4.912"/>
<rect x="646.552" y="56.483" fill="#757575" width="1.229" height="4.912"/>
<rect x="257" y="66" fill="#D6D6D6" width="396" height="19"/>
<rect x="266" y="66" fill="#CECAFE" width="74" height="19"/>
<path fill="#2D414F" d="M277,78c0,2.209-1.791,3.999-4,3.999s-4-1.79-4-3.999s1.791-4,4-4S277,75.791,277,78"/>
<path fill="#2D414F" d="M351,78c0,2.209-1.792,3.999-4,3.999s-4-1.79-4-3.999s1.792-4,4-4S351,75.791,351,78"/>
<rect x="283.092" y="77.358" fill="#2D414F" width="54.028" height="1.228"/>
<rect x="333.437" y="76.054" transform="matrix(0.7071 0.7071 -0.7071 0.7071 152.593 -215.0568)" fill="#2D414F" width="4.912" height="1.228"/>
<rect x="333.438" y="78.665" transform="matrix(-0.7072 0.7071 -0.7071 -0.7072 629.4772 -102.1542)" fill="#2D414F" width="4.911" height="1.228"/>
<rect x="279.406" y="76.055" transform="matrix(0.7071 0.7071 -0.7071 0.7071 136.7686 -176.8503)" fill="#2D414F" width="4.912" height="1.229"/>
<rect x="279.417" y="78.678" transform="matrix(-0.7071 0.7071 -0.7071 -0.7071 537.2554 -63.9535)" fill="#2D414F" width="4.911" height="1.228"/>
<rect x="340" y="66" fill="#2D414F" width="1" height="19"/>
<rect x="352" y="66" fill="#2D414F" width="1" height="19"/>
<rect x="257" y="85" fill="#D6D6D6" width="396" height="19"/>
<rect x="289.232" y="84.953" fill="#CECAFE" width="74.902" height="18.419"/>
<rect x="364" y="85" fill="#2D414F" width="1" height="19"/>
<rect x="307.651" y="97.004" fill="#2D414F" width="54.027" height="1.228"/>
<rect x="357.994" y="95.699" transform="matrix(0.7071 0.7071 -0.7071 0.7071 173.6773 -226.6674)" fill="#2D414F" width="4.912" height="1.228"/>
<rect x="357.994" y="98.31" transform="matrix(-0.7071 0.7071 -0.7071 -0.7071 685.2755 -86.0023)" fill="#2D414F" width="4.911" height="1.228"/>
<rect x="303.963" y="95.701" transform="matrix(0.7071 0.7071 -0.7071 0.7071 157.8532 -188.4609)" fill="#2D414F" width="4.912" height="1.229"/>
<rect x="303.975" y="98.326" transform="matrix(-0.7071 0.7071 -0.7071 -0.7071 593.0718 -47.7775)" fill="#2D414F" width="4.911" height="1.228"/>
<rect x="377" y="85" fill="#2D414F" width="1" height="19"/>
<path fill="#2D414F" d="M301,98c0,2.209-1.791,3.999-4,3.999s-4-1.79-4-3.999s1.791-4,4-4S301,95.791,301,98"/>
<path fill="#2D414F" d="M375,98c0,2.209-1.792,3.999-4,3.999s-4-1.79-4-3.999s1.792-4,4-4S375,95.791,375,98"/>
<rect x="257" y="84" fill="#2D414F" width="396" height="1"/>
<rect x="257" y="65" fill="#ABABAB" width="396" height="1"/>
<rect x="257" y="104" fill="#D6D6D6" width="396" height="19"/>
<rect x="414" y="104" fill="#2D414F" width="1" height="19"/>
<path fill="#2D414F" d="M301,116c0,2.209-1.791,3.999-4,3.999s-4-1.79-4-3.999s1.791-4,4-4S301,113.791,301,116"/>
<path fill="#2D414F" d="M327,116c0,2.209-1.791,3.999-4,3.999s-4-1.79-4-3.999s1.791-4,4-4S327,113.791,327,116"/>
<path fill="#2D414F" d="M412,116c0,2.209-1.791,3.999-4,3.999s-4-1.79-4-3.999s1.791-4,4-4S412,113.791,412,116"/>
<rect x="257" y="103" fill="#2D414F" width="396" height="1"/>
<rect x="257" y="122" fill="#2D414F" width="396" height="1"/>
<path fill="#FFC50C" d="M453.77,225.096c-2.957,2.956-19.126,13.018-22.893,9.25c-3.768-3.762,6.297-19.928,9.254-22.889
	c2.955-2.955,8.407-2.3,12.173,1.463C456.073,216.686,456.725,222.141,453.77,225.096"/>
<g opacity="0.1">
	<g>
		<g>
			<g>
				<g>
					<g>
						<defs>
							<rect id="SVGID_1_" x="435.726" y="214.593" width="14.907" height="14.901"/>
						</defs>
						<clipPath id="SVGID_2_">
							<use xlink:href="#SVGID_1_"  overflow="visible"/>
						</clipPath>
						<path clip-path="url(#SVGID_2_)" fill="#3F1926" d="M435.726,229.494c1.878-4.798,6.616-12.456,8.628-14.462
							c0.824-0.825,3.056-0.51,4.7,1.13c1.65,1.653,1.965,3.891,1.141,4.711C448.183,222.885,440.525,227.628,435.726,229.494"/>
					</g>
				</g>
			</g>
		</g>
	</g>
</g>
<path fill="#ED5F5F" d="M488.843,198.813c0,0,9.891,23.489-14.627,43.404c-6.188,5.026-4.79,0.372-3.441-4.636
	c1.344-5.005,3.994-15.115-5.605-15.101L488.843,198.813z"/>
<g opacity="0.1">
	<g>
		<g>
			<g>
				<g>
					<g>
						<defs>
							<rect id="SVGID_3_" x="465.169" y="198.813" width="25.646" height="45.566"/>
						</defs>
						<clipPath id="SVGID_4_">
							<use xlink:href="#SVGID_3_"  overflow="visible"/>
						</clipPath>
						<path clip-path="url(#SVGID_4_)" d="M488.843,198.813c0,0,9.891,23.489-14.627,43.404c-6.188,5.026-4.79,0.372-3.441-4.636
							c1.344-5.005,3.994-15.115-5.605-15.101L488.843,198.813z"/>
					</g>
				</g>
			</g>
		</g>
	</g>
</g>
<path fill="#D6D6D6" d="M447.918,200.745l-6.811,8.766c-0.538,0.54,2.29,4.246,6.327,8.282c4.036,4.032,7.741,6.865,8.281,6.33
	l8.765-6.819L447.918,200.745z"/>
<g opacity="0.1">
	<g>
		<g>
			<g>
				<g>
					<g>
						<defs>
							<rect id="SVGID_5_" x="447.921" y="209.511" width="16.559" height="14.677"/>
						</defs>
						<clipPath id="SVGID_6_">
							<use xlink:href="#SVGID_5_"  overflow="visible"/>
						</clipPath>
						<path clip-path="url(#SVGID_6_)" d="M455.715,224.123l8.766-6.819l-7.797-7.793l-8.763,8.764
							C451.764,222.047,455.194,224.639,455.715,224.123"/>
					</g>
				</g>
			</g>
		</g>
	</g>
</g>
<path fill="#ED5F5F" d="M467.418,177.383c0,0-23.499-9.891-43.414,14.623c-5.021,6.187-0.372,4.79,4.642,3.446
	c5.006-1.347,15.109-3.999,15.095,5.6L467.418,177.383z"/>
<path fill="#F5F5F5" d="M489.957,205.468c25.807-25.812,28.822-50.738,25.166-54.39c-3.647-3.656-28.574-0.64-54.39,25.172
	c-8.176,8.18-17.247,23.167-19.69,27.356c0,0-0.185,1.767,9.068,11.019c9.252,9.257,12.072,10.12,12.072,10.12
	C466.906,222.571,481.995,213.421,489.957,205.468"/>
<path fill="#ED5F5F" d="M515.122,151.077c-2.464-2.471-14.669-1.881-30.283,6.726c-0.539,0.54,4.304,6.251,10.804,12.754
	c6.509,6.499,12.22,11.338,12.75,10.797C517.009,165.742,517.594,153.544,515.122,151.077"/>
<path fill="#00AEEF" d="M488.824,189.059c-3.229,3.228-8.453,3.228-11.683,0c-3.228-3.228-3.228-8.459,0-11.686
	c3.229-3.229,8.453-3.229,11.683,0C492.051,180.6,492.051,185.831,488.824,189.059"/>
<g opacity="0.1">
	<g>
		<g>
			<g>
				<g>
					<g>
						<defs>
							<rect id="SVGID_7_" x="450.848" y="151.078" width="65.548" height="73.667"/>
						</defs>
						<clipPath id="SVGID_8_">
							<use xlink:href="#SVGID_7_"  overflow="visible"/>
						</clipPath>
						<path clip-path="url(#SVGID_8_)" d="M489.957,205.468c25.807-25.812,28.822-50.738,25.166-54.39l-64.274,64.275
							c8.655,8.55,11.335,9.392,11.335,9.392C466.906,222.571,481.995,213.421,489.957,205.468"/>
					</g>
				</g>
			</g>
		</g>
	</g>
</g>
<path fill="#ED5F5F" d="M280.637,30.698c0,4.068-3.299,7.367-7.368,7.367c-4.068,0-7.367-3.299-7.367-7.367
	c0-4.069,3.299-7.368,7.367-7.368C277.338,23.33,280.637,26.628,280.637,30.698"/>
<path fill="#FFC50C" d="M302.739,30.698c0,4.068-3.299,7.367-7.368,7.367c-4.068,0-7.367-3.299-7.367-7.367
	c0-4.069,3.299-7.368,7.367-7.368C299.44,23.33,302.739,26.628,302.739,30.698"/>
<path fill="#45B598" d="M324.841,30.698c0,4.068-3.299,7.367-7.367,7.367c-4.069,0-7.368-3.299-7.368-7.367
	c0-4.069,3.299-7.368,7.368-7.368C321.543,23.33,324.841,26.628,324.841,30.698"/>
<path fill="#202B33" d="M14.113,366.5c-3.235,0-6.277-1.258-8.564-3.543C3.259,360.668,2,357.629,2,354.396V148.605
	c0-3.233,1.259-6.273,3.549-8.56c2.287-2.286,5.329-3.545,8.564-3.545h273.773c3.235,0,6.277,1.259,8.565,3.545
	c2.289,2.287,3.549,5.327,3.549,8.56v205.791c0,3.233-1.26,6.272-3.549,8.561c-2.288,2.285-5.33,3.543-8.565,3.543H14.113z"/>
<path fill="#202B33" d="M14.113,364.5c-2.702,0-5.242-1.051-7.151-2.959C5.052,359.633,4,357.094,4,354.396V148.605
	c0-2.699,1.052-5.236,2.962-7.145s4.45-2.96,7.151-2.96h273.773c2.702,0,5.241,1.051,7.151,2.96c1.91,1.909,2.963,4.446,2.963,7.145
	v205.791c0,2.698-1.053,5.237-2.963,7.145c-1.909,1.908-4.448,2.959-7.151,2.959H14.113z"/>
<rect x="30" y="159.5" fill="#00ACE9" width="242" height="184"/>
<path d="M10,251.498c0,3.869,3.13,7.001,7.001,7.001c3.869,0,6.999-3.132,6.999-7.001c0-3.867-3.13-6.999-6.999-6.999
	C13.129,244.499,10,247.631,10,251.498"/>
<path fill="#7D8082" d="M15.199,254.5c-0.306,0-0.613-0.118-0.848-0.352c-0.235-0.234-0.351-0.541-0.351-0.85V249.7
	c0-0.307,0.116-0.615,0.351-0.848c0.235-0.235,0.542-0.352,0.848-0.352h3.6c0.307,0,0.614,0.117,0.849,0.352
	C19.883,249.085,20,249.393,20,249.7v3.598c0,0.309-0.117,0.616-0.352,0.85c-0.235,0.234-0.542,0.352-0.849,0.352L15.199,254.5
	L15.199,254.5z"/>
<rect x="15" y="249.5" width="4" height="4"/>
<g opacity="0.1">
	<g>
		<g>
			<g>
				<g>
					<g>
						<defs>
							<rect id="SVGID_9_" x="89.49" y="293.459" width="124.336" height="12.31"/>
						</defs>
						<clipPath id="SVGID_10_">
							<use xlink:href="#SVGID_9_"  overflow="visible"/>
						</clipPath>
						<path clip-path="url(#SVGID_10_)" d="M213.826,299.613c0,3.399-27.833,6.155-62.168,6.155
							c-34.334,0-62.168-2.756-62.168-6.155s27.834-6.154,62.168-6.154C185.993,293.459,213.826,296.214,213.826,299.613"/>
					</g>
				</g>
			</g>
		</g>
	</g>
</g>
<path fill="#FFC614" d="M94.415,286.072c0,15.638,24.544,16.004,57.859,16.004s57.86-0.366,57.86-16.004H94.415z"/>
<path fill="#FFC614" d="M212.595,245.448c0-24.477-27.006-44.318-60.321-44.318c-33.316,0-60.322,19.841-60.322,44.318H212.595z"/>
<g opacity="0.3">
	<g>
		<g>
			<g>
				<g>
					<g>
						<defs>
							<rect id="SVGID_11_" x="190.437" y="233.137" width="4.924" height="4.924"/>
						</defs>
						<clipPath id="SVGID_12_">
							<use xlink:href="#SVGID_11_"  overflow="visible"/>
						</clipPath>
						<path clip-path="url(#SVGID_12_)" fill="#FFFFFF" d="M190.437,235.599c0,1.36,1.102,2.462,2.462,2.462
							s2.462-1.102,2.462-2.462c0-1.359-1.102-2.462-2.462-2.462S190.437,234.24,190.437,235.599"/>
					</g>
				</g>
			</g>
		</g>
	</g>
</g>
<g opacity="0.3">
	<g>
		<g>
			<g>
				<g>
					<g>
						<defs>
							<rect id="SVGID_13_" x="169.508" y="224.52" width="4.924" height="4.924"/>
						</defs>
						<clipPath id="SVGID_14_">
							<use xlink:href="#SVGID_13_"  overflow="visible"/>
						</clipPath>
						<path clip-path="url(#SVGID_14_)" fill="#FFFFFF" d="M169.508,226.981c0,1.36,1.103,2.462,2.462,2.462
							c1.36,0,2.462-1.102,2.462-2.462s-1.102-2.462-2.462-2.462C170.611,224.52,169.508,225.622,169.508,226.981"/>
					</g>
				</g>
			</g>
		</g>
	</g>
</g>
<path fill="#864B3B" d="M219.981,277.455c0,2.205-0.841,4.411-2.523,6.093c-1.683,1.682-3.89,2.524-6.094,2.524H93.184
	c-2.205,0-4.41-0.843-6.094-2.524c-1.682-1.682-2.523-3.888-2.523-6.093v-3.693c0-2.205,0.841-4.411,2.523-6.093
	c1.684-1.683,3.889-2.525,6.094-2.525h118.181c2.204,0,4.411,0.843,6.094,2.525c1.682,1.682,2.523,3.888,2.523,6.093
	L219.981,277.455L219.981,277.455z"/>
<g opacity="0.1">
	<g>
		<g>
			<g>
				<g>
					<g>
						<defs>
							<rect id="SVGID_15_" x="84.566" y="277.455" width="135.415" height="8.617"/>
						</defs>
						<clipPath id="SVGID_16_">
							<use xlink:href="#SVGID_15_"  overflow="visible"/>
						</clipPath>
						<path clip-path="url(#SVGID_16_)" d="M219.981,277.455c0,2.205-0.841,4.411-2.523,6.093c-1.683,1.682-3.89,2.524-6.094,2.524
							H93.184c-2.205,0-4.41-0.843-6.094-2.524c-1.682-1.682-2.523-3.888-2.523-6.093H219.981z"/>
					</g>
				</g>
			</g>
		</g>
	</g>
</g>
<rect x="93.184" y="257.758" fill="#FFC614" width="119.412" height="7.386"/>
<rect x="94.415" y="245.448" fill="#ED5F5F" width="115.719" height="6.155"/>
<path fill="#FFC614" d="M167.354,273.762c0,0.944-0.36,1.89-1.082,2.61c-0.721,0.723-1.666,1.082-2.611,1.082
	c-0.945,0-1.89-0.359-2.611-1.082c-0.721-0.721-1.081-1.666-1.081-2.61v-9.849h7.386v9.849H167.354z"/>
<path fill="#FFC614" d="M178.126,278.686c0,0.945-0.361,1.891-1.082,2.611c-0.721,0.722-1.667,1.082-2.611,1.082
	c-0.945,0-1.89-0.36-2.612-1.082c-0.721-0.721-1.081-1.666-1.081-2.611v-14.772h7.386L178.126,278.686L178.126,278.686z"/>
<rect x="88.259" y="251.603" fill="#45B598" width="128.029" height="6.155"/>
<path fill="#45B598" d="M98.108,256.527c0,2.719-2.205,4.924-4.924,4.924c-2.72,0-4.925-2.205-4.925-4.924
	c0-2.72,2.205-4.924,4.925-4.924C95.903,251.603,98.108,253.807,98.108,256.527"/>
<path fill="#45B598" d="M107.956,256.527c0,2.719-2.204,4.924-4.924,4.924c-2.719,0-4.924-2.205-4.924-4.924
	c0-2.72,2.205-4.924,4.924-4.924C105.752,251.603,107.956,253.807,107.956,256.527"/>
<path fill="#45B598" d="M117.805,256.527c0,2.719-2.205,4.924-4.924,4.924c-2.72,0-4.925-2.205-4.925-4.924
	c0-2.72,2.205-4.924,4.925-4.924C115.6,251.603,117.805,253.807,117.805,256.527"/>
<path fill="#45B598" d="M127.653,256.527c0,2.719-2.205,4.924-4.924,4.924c-2.72,0-4.924-2.205-4.924-4.924
	c0-2.72,2.204-4.924,4.924-4.924C125.448,251.603,127.653,253.807,127.653,256.527"/>
<path fill="#45B598" d="M137.502,256.527c0,2.719-2.205,4.924-4.924,4.924c-2.72,0-4.925-2.205-4.925-4.924
	c0-2.72,2.205-4.924,4.925-4.924C135.296,251.603,137.502,253.807,137.502,256.527"/>
<path fill="#45B598" d="M147.35,256.527c0,2.719-2.205,4.924-4.924,4.924c-2.72,0-4.924-2.205-4.924-4.924
	c0-2.72,2.204-4.924,4.924-4.924C145.145,251.603,147.35,253.807,147.35,256.527"/>
<path fill="#45B598" d="M157.198,256.527c0,2.719-2.205,4.924-4.924,4.924c-2.72,0-4.925-2.205-4.925-4.924
	c0-2.72,2.205-4.924,4.925-4.924C154.993,251.603,157.198,253.807,157.198,256.527"/>
<path fill="#45B598" d="M167.046,256.527c0,2.719-2.205,4.924-4.924,4.924c-2.72,0-4.924-2.205-4.924-4.924
	c0-2.72,2.204-4.924,4.924-4.924C164.841,251.603,167.046,253.807,167.046,256.527"/>
<path fill="#45B598" d="M176.895,256.527c0,2.719-2.205,4.924-4.924,4.924s-4.925-2.205-4.925-4.924c0-2.72,2.206-4.924,4.925-4.924
	C174.69,251.603,176.895,253.807,176.895,256.527"/>
<path fill="#45B598" d="M186.743,256.527c0,2.719-2.205,4.924-4.924,4.924c-2.72,0-4.924-2.205-4.924-4.924
	c0-2.72,2.204-4.924,4.924-4.924C184.538,251.603,186.743,253.807,186.743,256.527"/>
<path fill="#45B598" d="M196.591,256.527c0,2.719-2.205,4.924-4.924,4.924c-2.72,0-4.924-2.205-4.924-4.924
	c0-2.72,2.204-4.924,4.924-4.924C194.386,251.603,196.591,253.807,196.591,256.527"/>
<path fill="#45B598" d="M206.44,256.527c0,2.719-2.205,4.924-4.924,4.924c-2.72,0-4.925-2.205-4.925-4.924
	c0-2.72,2.205-4.924,4.925-4.924C204.235,251.603,206.44,253.807,206.44,256.527"/>
<path fill="#45B598" d="M216.288,256.527c0,2.719-2.205,4.924-4.924,4.924c-2.72,0-4.924-2.205-4.924-4.924
	c0-2.72,2.204-4.924,4.924-4.924C214.083,251.603,216.288,253.807,216.288,256.527"/>
<g opacity="0.3">
	<g>
		<g>
			<g>
				<g>
					<g>
						<defs>
							<rect id="SVGID_17_" x="104.264" y="226.982" width="4.923" height="4.924"/>
						</defs>
						<clipPath id="SVGID_18_">
							<use xlink:href="#SVGID_17_"  overflow="visible"/>
						</clipPath>
						<path clip-path="url(#SVGID_18_)" fill="#FFFFFF" d="M109.187,229.443c0,1.36-1.102,2.462-2.462,2.462
							s-2.462-1.102-2.462-2.462c0-1.359,1.102-2.462,2.462-2.462C108.085,226.981,109.187,228.084,109.187,229.443"/>
					</g>
				</g>
			</g>
		</g>
	</g>
</g>
<g opacity="0.3">
	<g>
		<g>
			<g>
				<g>
					<g>
						<defs>
							<rect id="SVGID_19_" x="117.805" y="217.134" width="4.924" height="4.924"/>
						</defs>
						<clipPath id="SVGID_20_">
							<use xlink:href="#SVGID_19_"  overflow="visible"/>
						</clipPath>
						<path clip-path="url(#SVGID_20_)" fill="#FFFFFF" d="M122.729,219.596c0,1.36-1.102,2.462-2.462,2.462
							s-2.462-1.102-2.462-2.462s1.102-2.462,2.462-2.462S122.729,218.235,122.729,219.596"/>
					</g>
				</g>
			</g>
		</g>
	</g>
</g>
<g opacity="0.3">
	<g>
		<g>
			<g>
				<g>
					<g>
						<defs>
							<rect id="SVGID_21_" x="132.578" y="224.52" width="4.924" height="4.924"/>
						</defs>
						<clipPath id="SVGID_22_">
							<use xlink:href="#SVGID_21_"  overflow="visible"/>
						</clipPath>
						<path clip-path="url(#SVGID_22_)" fill="#FFFFFF" d="M137.502,226.981c0,1.36-1.103,2.462-2.462,2.462
							c-1.36,0-2.462-1.102-2.462-2.462s1.102-2.462,2.462-2.462C136.398,224.52,137.502,225.622,137.502,226.981"/>
					</g>
				</g>
			</g>
		</g>
	</g>
</g>
<g opacity="0.3">
	<g>
		<g>
			<g>
				<g>
					<g>
						<defs>
							<rect id="SVGID_23_" x="139.963" y="236.831" width="4.924" height="4.923"/>
						</defs>
						<clipPath id="SVGID_24_">
							<use xlink:href="#SVGID_23_"  overflow="visible"/>
						</clipPath>
						<path clip-path="url(#SVGID_24_)" fill="#FFFFFF" d="M144.888,239.292c0,1.36-1.103,2.462-2.462,2.462
							c-1.36,0-2.462-1.102-2.462-2.462s1.102-2.462,2.462-2.462C143.785,236.83,144.888,237.932,144.888,239.292"/>
					</g>
				</g>
			</g>
		</g>
	</g>
</g>
<g opacity="0.3">
	<g>
		<g>
			<g>
				<g>
					<g>
						<defs>
							<rect id="SVGID_25_" x="149.812" y="222.058" width="4.924" height="4.924"/>
						</defs>
						<clipPath id="SVGID_26_">
							<use xlink:href="#SVGID_25_"  overflow="visible"/>
						</clipPath>
						<path clip-path="url(#SVGID_26_)" fill="#FFFFFF" d="M154.736,224.52c0,1.359-1.103,2.462-2.462,2.462
							c-1.36,0-2.462-1.103-2.462-2.462c0-1.36,1.102-2.462,2.462-2.462C153.633,222.058,154.736,223.16,154.736,224.52"/>
					</g>
				</g>
			</g>
		</g>
	</g>
</g>
<g opacity="0.3">
	<g>
		<g>
			<g>
				<g>
					<g>
						<defs>
							<rect id="SVGID_27_" x="157.199" y="207.285" width="4.924" height="4.924"/>
						</defs>
						<clipPath id="SVGID_28_">
							<use xlink:href="#SVGID_27_"  overflow="visible"/>
						</clipPath>
						<path clip-path="url(#SVGID_28_)" fill="#FFFFFF" d="M162.122,209.747c0,1.36-1.102,2.462-2.462,2.462
							s-2.462-1.102-2.462-2.462c0-1.359,1.102-2.462,2.462-2.462C161.02,207.285,162.122,208.388,162.122,209.747"/>
					</g>
				</g>
			</g>
		</g>
	</g>
</g>
<g opacity="0.3">
	<g>
		<g>
			<g>
				<g>
					<g>
						<defs>
							<rect id="SVGID_29_" x="159.661" y="235.599" width="4.924" height="4.924"/>
						</defs>
						<clipPath id="SVGID_30_">
							<use xlink:href="#SVGID_29_"  overflow="visible"/>
						</clipPath>
						<path clip-path="url(#SVGID_30_)" fill="#FFFFFF" d="M164.585,238.061c0,1.359-1.103,2.462-2.462,2.462
							c-1.36,0-2.462-1.103-2.462-2.462c0-1.36,1.102-2.462,2.462-2.462C163.481,235.599,164.585,236.701,164.585,238.061"/>
					</g>
				</g>
			</g>
		</g>
	</g>
</g>
<g opacity="0.3">
	<g>
		<g>
			<g>
				<g>
					<g>
						<defs>
							<rect id="SVGID_31_" x="136.27" y="210.978" width="4.925" height="4.924"/>
						</defs>
						<clipPath id="SVGID_32_">
							<use xlink:href="#SVGID_31_"  overflow="visible"/>
						</clipPath>
						<path clip-path="url(#SVGID_32_)" fill="#FFFFFF" d="M141.194,213.44c0,1.36-1.102,2.462-2.462,2.462
							s-2.462-1.102-2.462-2.462s1.102-2.462,2.462-2.462S141.194,212.08,141.194,213.44"/>
					</g>
				</g>
			</g>
		</g>
	</g>
</g>
<g opacity="0.3">
	<g>
		<g>
			<g>
				<g>
					<g>
						<defs>
							<rect id="SVGID_33_" x="115.342" y="231.906" width="4.924" height="4.925"/>
						</defs>
						<clipPath id="SVGID_34_">
							<use xlink:href="#SVGID_33_"  overflow="visible"/>
						</clipPath>
						<path clip-path="url(#SVGID_34_)" fill="#FFFFFF" d="M120.267,234.368c0,1.36-1.103,2.462-2.462,2.462
							c-1.36,0-2.462-1.102-2.462-2.462c0-1.359,1.102-2.462,2.462-2.462C119.164,231.906,120.267,233.009,120.267,234.368"/>
					</g>
				</g>
			</g>
		</g>
	</g>
</g>
<g opacity="0.3">
	<g>
		<g>
			<g>
				<g>
					<g>
						<defs>
							<rect id="SVGID_35_" x="180.587" y="217.134" width="4.925" height="4.924"/>
						</defs>
						<clipPath id="SVGID_36_">
							<use xlink:href="#SVGID_35_"  overflow="visible"/>
						</clipPath>
						<path clip-path="url(#SVGID_36_)" fill="#FFFFFF" d="M180.588,219.596c0,1.36,1.102,2.462,2.462,2.462
							s2.462-1.102,2.462-2.462s-1.102-2.462-2.462-2.462C181.69,217.133,180.588,218.235,180.588,219.596"/>
					</g>
				</g>
			</g>
		</g>
	</g>
</g>
<g opacity="0.1">
	<g>
		<g>
			<g>
				<g>
					<g>
						<defs>
							<rect id="SVGID_37_" x="94.415" y="286.072" width="115.719" height="2.462"/>
						</defs>
						<clipPath id="SVGID_38_">
							<use xlink:href="#SVGID_37_"  overflow="visible"/>
						</clipPath>
						<rect x="94.415" y="286.072" clip-path="url(#SVGID_38_)" width="115.719" height="2.462"/>
					</g>
				</g>
			</g>
		</g>
	</g>
</g>
<rect x="689" y="178" fill="#202B33" width="14" height="6"/>
<path fill="#202B33" d="M718,339.728c0,3.138-1.2,6.274-3.6,8.67c-2.398,2.393-5.543,3.591-8.687,3.591h-61.428
	c-3.143,0-6.288-1.198-8.686-3.591c-2.399-2.396-3.6-5.532-3.6-8.67v-148.48c0-3.137,1.2-6.274,3.6-8.669
	c2.398-2.393,5.543-3.59,8.686-3.59h61.428c3.143,0,6.289,1.197,8.687,3.59c2.399,2.395,3.6,5.532,3.6,8.669V339.728z"/>
<path fill="#202B33" d="M644.286,350.988c-3.015,0-5.849-1.172-7.98-3.299c-2.132-2.127-3.306-4.955-3.306-7.962v-148.48
	c0-3.007,1.174-5.834,3.306-7.963c2.132-2.126,4.966-3.297,7.98-3.297h61.428c3.016,0,5.85,1.171,7.98,3.298
	c2.132,2.128,3.306,4.955,3.306,7.962v148.48c0,3.007-1.174,5.835-3.306,7.962c-2.131,2.127-4.965,3.299-7.98,3.299H644.286z"/>
<path d="M664,195.014c0,0.515,0.198,1.025,0.596,1.417c0.397,0.391,0.917,0.585,1.435,0.585h17.939c0.522,0,1.04-0.194,1.437-0.585
	c0.395-0.392,0.594-0.902,0.594-1.417c0-0.51-0.198-1.021-0.594-1.412c-0.397-0.391-0.915-0.586-1.437-0.586h-17.94
	c-0.518,0-1.037,0.195-1.435,0.586C664.198,193.993,664,194.503,664,195.014"/>
<path d="M677,187.988c0,1.105-0.895,2-2,2c-1.106,0-2-0.895-2-2s0.894-2,2-2C676.105,185.988,677,186.883,677,187.988"/>
<rect x="638" y="202.988" fill="#ED5F5F" width="74" height="125"/>
<path d="M674.997,345.988c3.869,0,7.003-3.129,7.003-7.001c0-3.87-3.134-6.999-7.003-6.999c-3.867,0-6.997,3.129-6.997,6.999
	C668,342.859,671.129,345.988,674.997,345.988"/>
<path fill="#7D8082" d="M678,340.788c0,0.307-0.116,0.612-0.351,0.848c-0.234,0.234-0.544,0.352-0.849,0.352h-3.6
	c-0.307,0-0.613-0.118-0.849-0.352c-0.233-0.235-0.352-0.541-0.352-0.848v-3.601c0-0.306,0.118-0.614,0.352-0.849
	c0.235-0.235,0.542-0.351,0.849-0.351h3.601c0.305,0,0.614,0.115,0.849,0.351c0.234,0.234,0.351,0.543,0.351,0.849v3.601H678z"/>
<rect x="673" y="336.988" width="4" height="4"/>
<polygon fill="#A8E0F9" points="699,253.988 651,253.988 662,241.988 688.029,241.988 "/>
<polygon fill="#8ED8F7" points="684,253.988 666,253.988 662,241.988 688,241.988 "/>
<polygon fill="#00ACE9" points="699,253.988 675.684,283.988 651,253.988 "/>
<polygon fill="#27BCED" points="666,253.988 675.684,283.988 684,253.988 "/>
<polygon fill="#DEF3FC" points="675.567,241.988 666,253.988 684,253.988 "/>
<g>
	<path fill="#FFC50C" d="M406.629,391.77l18.04,74.659c2.288,9.838,0.519,20.572-5.802,29.491
		c-6.298,8.877-21.604,14.48-25.903,15.194c-4.324,0.724-14.67,2.397-32.848,2.431c-18.156,0.081-28.535-1.509-32.837-2.22
		c-4.329-0.699-19.664-6.175-26.018-15.036c-6.369-8.859-8.21-19.58-5.983-29.439l17.771-75.081h93.58L406.629,391.77
		L406.629,391.77z"/>
	<path fill="#FFC50C" d="M279.149,425.071c-11.683,31.479,12.789,37.3,29.113,22.359c16.323-14.932,4.176-52.338,4.176-52.338
		S286.892,404.204,279.149,425.071"/>
	<path fill="#FFC50C" d="M440.006,425.071c11.684,31.479-12.791,37.3-29.113,22.359c-16.322-14.932-4.176-52.338-4.176-52.338
		S432.261,404.204,440.006,425.071"/>
	<path fill="#FFC50C" d="M435.599,348.569h-151.2v-76.431c0-16.158,6.166-32.317,18.494-44.645
		C315.222,215.164,331.38,209,347.537,209h24.924c16.158,0,32.318,6.164,44.647,18.493c12.327,12.328,18.49,28.487,18.49,44.645
		v76.431H435.599z"/>
	<path fill="#FFC50C" d="M468,335.329c0,14.882-5.676,29.765-17.031,41.12c-11.357,11.355-26.24,17.034-41.123,17.034h-99.692
		c-14.883,0-29.765-5.679-41.12-17.034C257.679,365.094,252,350.211,252,335.329v3.271c0-14.882,5.679-29.765,17.034-41.119
		c11.355-11.356,26.237-17.034,41.12-17.034h99.692c14.883,0,29.766,5.678,41.123,17.034C462.324,308.835,468,323.718,468,338.6
		V335.329z"/>
	<path fill="#3F1926" d="M342.553,282.524c0,3.213-2.603,5.814-5.815,5.814c-3.213,0-5.816-2.602-5.816-5.814
		c0-3.213,2.603-5.815,5.816-5.815C339.95,276.708,342.553,279.311,342.553,282.524"/>
	<path fill="#3F1926" d="M389.077,282.524c0,3.213-2.603,5.814-5.815,5.814c-3.213,0-5.815-2.602-5.815-5.814
		c0-3.213,2.603-5.815,5.815-5.815C386.473,276.708,389.077,279.311,389.077,282.524"/>
	<path fill="#F58A68" d="M438.922,328.631c0,10.631-4.056,21.261-12.166,29.372c-8.109,8.11-18.741,12.166-29.372,12.166h-74.77
		c-10.631,0-21.259-4.056-29.372-12.166c-8.109-8.111-12.166-18.741-12.166-29.372v-1.662c0-10.631,4.057-21.26,12.166-29.372
		c8.113-8.109,18.741-12.166,29.372-12.166h74.77c10.631,0,21.263,4.057,29.372,12.166c8.11,8.112,12.166,18.741,12.166,29.372
		V328.631z"/>
	<rect x="302.68" y="394.262" fill="#3F1926" width="9.969" height="11.631"/>
	<rect x="407.357" y="394.262" fill="#3F1926" width="9.969" height="11.631"/>
</g>
<g id="message">
	<rect class="base" x="294" y="400" fill="#55C5DB" width="131.262" height="116.308"/>
	<g>
		<path fill="#FFFFFF" d="M324.255,453.32h3.328l5.503,16.67l5.344-16.606h4.128l-7.808,22.559h-3.392l-5.504-16.095l-5.503,16.095
			h-3.392l-7.808-22.559h4.256l5.343,16.606L324.255,453.32z"/>
		<path fill="#FFFFFF" d="M355.106,476.166c-6.879,0-11.679-5.216-11.679-11.551c0-6.336,4.864-11.615,11.743-11.615
			c6.88,0,11.68,5.216,11.68,11.551C366.85,470.887,361.985,476.166,355.106,476.166z M355.106,456.615
			c-4.448,0-7.551,3.552-7.551,7.936s3.167,8,7.615,8s7.552-3.552,7.552-7.936S359.554,456.615,355.106,456.615z"/>
		<path fill="#FFFFFF" d="M384.354,475.782l-5.503-7.808h-4.928v7.808h-3.936v-22.398h9.983c5.151,0,8.319,2.72,8.319,7.104
			c0,3.712-2.208,5.951-5.344,6.815l6.047,8.479H384.354z M379.65,456.968h-5.728v7.52h5.76c2.815,0,4.607-1.472,4.607-3.776
			C384.29,458.247,382.562,456.968,379.65,456.968z"/>
		<path fill="#FFFFFF" d="M412.008,475.782h-4.768l-7.647-10.079l-3.488,3.584v6.495h-3.936v-22.398h3.936v11.264l10.655-11.264
			h4.832l-9.312,9.632L412.008,475.782z"/>
	</g>
	<g>
		<path fill="#F9F9F9" d="M342.542,428.048h2.04l-7.225,16.922h-1.68l-7.225-16.922h2.112l5.977,14.474L342.542,428.048z"/>
		<path fill="#F9F9F9" d="M349.011,428.048v16.802h-1.896v-16.802H349.011z"/>
		<path fill="#F9F9F9" d="M365.371,429.776h-10.25v5.736h9.168v1.729h-9.168v5.88h10.369v1.729h-12.265v-16.802h12.146
			L365.371,429.776L365.371,429.776z"/>
		<path fill="#F9F9F9" d="M378.957,428h1.56l4.608,14.041l4.801-13.993h1.992l-6.001,16.922h-1.607l-4.608-13.633l-4.633,13.633
			h-1.584l-6.001-16.922h2.064l4.801,13.993L378.957,428z"/>
	</g>
	<path id="arrow_1_" opacity="0.6" fill="#FFFFFF" enable-background="new    " d="M366.837,495.833
		c-0.535,0.602-6.17,6.492-6.17,6.492c-0.286,0.322-0.661,0.483-1.035,0.483c-0.375,0-0.75-0.161-1.036-0.483
		c0,0-5.634-5.89-6.17-6.492c-0.536-0.603-0.572-1.687,0-2.331c0.571-0.643,1.369-0.694,2.07,0l5.135,5.404l5.135-5.404
		c0.702-0.694,1.499-0.643,2.071,0C367.409,494.146,367.372,495.23,366.837,495.833z"/>
</g>

</svg>