<?xml version="1.0" encoding="utf-8"?>
<!-- Generator: Adobe Illustrator 17.0.0, SVG Export Plug-In . SVG Version: 6.00 Build 0)  -->
<!DOCTYPE svg PUBLIC "-//W3C//DTD SVG 1.1//EN" "http://www.w3.org/Graphics/SVG/1.1/DTD/svg11.dtd">
<svg version="1.1" id="sprites" xmlns="http://www.w3.org/2000/svg" xmlns:xlink="http://www.w3.org/1999/xlink" x="0px" y="0px"
	 width="512px" height="512px" viewBox="0 0 512 512" enable-background="new 0 0 512 512" xml:space="preserve">
<g id="arrow-right">
	<path id="base" fill-rule="evenodd" clip-rule="evenodd" fill="#E95354" d="M290,30c0,11.046-8.954,20-20,20
		c-11.046,0-20-8.954-20-20c0-11.046,8.954-20,20-20C281.046,10,290,18.954,290,30z"/>
	<path id="arrow" fill="#FFFFFF" d="M271.023,37.206c-0.602-0.535-6.492-6.17-6.492-6.17c-0.322-0.286-0.483-0.661-0.483-1.035
		c0-0.375,0.161-0.75,0.483-1.035c0,0,5.89-5.634,6.492-6.17c0.603-0.536,1.687-0.572,2.331,0c0.643,0.571,0.694,1.369,0,2.07
		L267.95,30l5.404,5.135c0.694,0.701,0.643,1.499,0,2.071C272.711,37.778,271.627,37.741,271.023,37.206z"/>
</g>
<g id="arrow-left_1_">
	<path id="base_5_" fill-rule="evenodd" clip-rule="evenodd" fill="#E95354" d="M270,60c11.046,0,20,8.954,20,20
		c0,11.046-8.954,20-20,20c-11.046,0-20-8.954-20-20C250,68.955,258.954,60,270,60z"/>
	<path id="arrow_2_" fill="#FFFFFF" d="M266.646,87.206c-0.643-0.571-0.694-1.369,0-2.071L272.05,80l-5.404-5.136
		c-0.694-0.701-0.643-1.499,0-2.07c0.643-0.572,1.727-0.536,2.331,0c0.602,0.536,6.492,6.17,6.492,6.17
		c0.322,0.286,0.483,0.661,0.483,1.035c0,0.375-0.161,0.749-0.483,1.035c0,0-5.89,5.635-6.492,6.17
		C268.373,87.742,267.289,87.778,266.646,87.206z"/>
</g>
<g id="arrow-down">
	<path class="base" fill-rule="evenodd" clip-rule="evenodd" fill="#A2A2A2" d="M240,30c0,11.046-8.954,20-20,20
		c-11.046,0-20-8.954-20-20c0-11.045,8.954-20,20-20C231.046,10,240,18.954,240,30z"/>
	<path id="arrow_1_" fill="#FFFFFF" d="M227.206,28.58c-0.535,0.602-6.17,6.492-6.17,6.492c-0.286,0.322-0.661,0.483-1.035,0.483
		c-0.375,0-0.75-0.161-1.036-0.483c0,0-5.634-5.89-6.17-6.492c-0.536-0.603-0.572-1.687,0-2.331c0.571-0.643,1.369-0.694,2.07,0
		L220,31.653l5.135-5.404c0.702-0.694,1.499-0.643,2.071,0C227.778,26.893,227.741,27.977,227.206,28.58z"/>
</g>
<g id="twitter">
	<circle fill="#4099FF" cx="168" cy="32" r="22"/>
	<path fill="#F5F5F5" d="M171.056,23.408c-1.921,0.699-3.135,2.501-2.996,4.474l0.046,0.761l-0.768-0.093
		c-2.797-0.357-5.24-1.569-7.314-3.604l-1.014-1.01l-0.261,0.746c-0.553,1.662-0.2,3.418,0.953,4.599
		c0.615,0.653,0.476,0.746-0.584,0.357c-0.369-0.124-0.691-0.217-0.722-0.171c-0.108,0.109,0.261,1.523,0.553,2.082
		c0.4,0.777,1.214,1.538,2.105,1.989l0.753,0.357l-0.891,0.016c-0.861,0-0.891,0.016-0.799,0.342
		c0.307,1.01,1.521,2.082,2.874,2.548l0.953,0.326l-0.83,0.497c-1.229,0.715-2.674,1.119-4.118,1.15
		c-0.691,0.016-1.26,0.078-1.26,0.124c0,0.155,1.875,1.025,2.966,1.367c3.273,1.01,7.161,0.575,10.08-1.15
		c2.074-1.227,4.149-3.666,5.117-6.028c0.522-1.258,1.045-3.558,1.045-4.661c0-0.715,0.046-0.808,0.907-1.662
		c0.507-0.497,0.983-1.041,1.076-1.196c0.154-0.295,0.138-0.295-0.645-0.031c-1.306,0.466-1.491,0.404-0.845-0.295
		c0.476-0.497,1.045-1.398,1.045-1.662c0-0.047-0.23,0.031-0.492,0.171c-0.277,0.155-0.891,0.388-1.352,0.528l-0.83,0.264
		l-0.753-0.513c-0.415-0.28-0.999-0.59-1.306-0.684C172.961,23.128,171.763,23.159,171.056,23.408z"/>
</g>
<g id="dribbble">
	<circle fill="#EA4C89" cx="168" cy="86" r="22"/>
	<path fill="#F2F2F2" d="M180.433,83.346c-0.166-0.809-0.411-1.604-0.733-2.362c-0.314-0.746-0.704-1.465-1.159-2.135
		c-0.448-0.666-0.965-1.29-1.533-1.86c-0.569-0.567-1.195-1.082-1.859-1.532c-0.671-0.455-1.39-0.844-2.135-1.161
		c-0.759-0.321-1.554-0.567-2.36-0.731c-0.828-0.169-1.68-0.255-2.531-0.255c-0.852,0-1.703,0.086-2.53,0.255
		c-0.808,0.164-1.603,0.41-2.361,0.731c-0.745,0.317-1.464,0.706-2.135,1.161c-0.664,0.45-1.29,0.965-1.858,1.532
		c-0.568,0.57-1.085,1.193-1.534,1.86c-0.453,0.67-0.843,1.389-1.158,2.135c-0.322,0.758-0.568,1.553-0.734,2.362
		c-0.168,0.827-0.254,1.678-0.254,2.53c0,0.851,0.086,1.701,0.254,2.529c0.166,0.809,0.412,1.603,0.734,2.362
		c0.315,0.745,0.706,1.464,1.158,2.134c0.449,0.666,0.966,1.29,1.534,1.86c0.568,0.567,1.193,1.083,1.858,1.534
		c0.671,0.453,1.39,0.842,2.135,1.158c0.758,0.32,1.553,0.566,2.361,0.731c0.827,0.171,1.679,0.258,2.53,0.258
		s1.703-0.087,2.531-0.258c0.807-0.166,1.601-0.411,2.36-0.731c0.745-0.316,1.463-0.706,2.135-1.158
		c0.664-0.451,1.29-0.967,1.859-1.534c0.568-0.569,1.084-1.194,1.533-1.86c0.455-0.67,0.845-1.388,1.159-2.134
		c0.321-0.759,0.567-1.553,0.733-2.362c0.17-0.828,0.256-1.678,0.256-2.529C180.689,85.024,180.603,84.173,180.433,83.346z
		 M168.124,75.146c2.717,0,5.197,1.01,7.087,2.676c-0.026,0.039-1.555,2.366-5.604,3.884c-1.835-3.37-3.851-6.044-4.012-6.26
		C166.406,75.251,167.252,75.146,168.124,75.146z M163.545,76.17c0.143,0.191,2.127,2.884,3.984,6.184
		c-5.152,1.369-9.624,1.312-9.907,1.31C158.319,80.34,160.553,77.583,163.545,76.17z M160.142,93.046
		c-1.709-1.9-2.749-4.413-2.749-7.17c0-0.115,0.005-0.227,0.009-0.342c0.19,0.007,5.492,0.126,11.017-1.528
		c0.307,0.603,0.601,1.214,0.871,1.823c-0.141,0.04-0.283,0.082-0.423,0.129C163.075,87.831,160.139,93.04,160.142,93.046z
		 M168.124,96.606c-2.489,0-4.774-0.855-6.595-2.271c0.022-0.049,2.09-4.497,8.421-6.704c0.023-0.009,0.047-0.015,0.071-0.023
		c1.51,3.924,2.133,7.211,2.292,8.148C171.025,96.303,169.61,96.606,168.124,96.606z M174.12,94.775
		c-0.109-0.647-0.681-3.797-2.089-7.665c3.464-0.555,6.466,0.395,6.687,0.466C178.241,90.567,176.53,93.149,174.12,94.775z
		 M171.377,85.417c-0.075-0.184-0.153-0.368-0.232-0.556c-0.223-0.523-0.464-1.044-0.713-1.556c4.237-1.73,5.958-4.217,5.978-4.246
		c1.506,1.828,2.416,4.162,2.44,6.706C178.695,85.733,175.064,84.953,171.377,85.417z"/>
</g>
<g id="location">
	<circle id="base_2_" fill="#394552" cx="118" cy="120" r="18"/>
	<path id="icon" fill="#FFFFFF" d="M118,111.003c-3.866,0-7,3.134-7,7c0,3.437,6.227,11.057,6.227,11.057
		c0.183,0.224,0.461,0.366,0.773,0.366c0.311,0,0.589-0.142,0.773-0.366c0,0,6.227-7.619,6.227-11.057
		C125,114.137,121.866,111.003,118,111.003z M118,121.003c-1.657,0-3-1.343-3-3s1.343-3,3-3s3,1.343,3,3
		S119.657,121.003,118,121.003z"/>
</g>
<g id="email">
	<circle id="base_3_" fill="#394552" cx="118" cy="74" r="18"/>
	<g id="icon_1_">
		<polygon fill="#FFFFFF" points="110,69.488 110,76.597 114.767,73.229 		"/>
		<path fill="#FFFFFF" d="M117.851,74.122c0.226,0.004,0.436-0.066,0.606-0.189l7.424-5.375c-0.046-0.092-0.097-0.187-0.174-0.264
			C125.512,68.099,125.256,68,125,68h-14c-0.256,0-0.512,0.099-0.707,0.294c-0.029,0.029-0.041,0.068-0.066,0.1l7.026,5.514
			C117.418,74.038,117.625,74.117,117.851,74.122z"/>
		<polygon fill="#FFFFFF" points="121.109,73.246 126,76.715 126,69.706 		"/>
		<path fill="#FFFFFF" d="M119.043,74.742c-0.34,0.246-0.76,0.389-1.212,0.38c-0.452-0.009-0.866-0.167-1.196-0.427l-1.047-0.822
			L110,77.821v0.182c0,0.256,0.098,0.51,0.293,0.705C110.488,78.903,110.744,79,111,79h14c0.256,0,0.512-0.097,0.707-0.292
			c0.195-0.195,0.293-0.449,0.293-0.705v-0.062l-5.746-4.076L119.043,74.742z"/>
	</g>
</g>
<g id="phone">
	<circle id="base_4_" fill="#394552" cx="118" cy="28" r="18"/>
	<path id="icon_2_" fill="#FFFFFF" d="M123.414,17.587C123.024,17.197,122.512,17,122,17h-8c-0.512,0-1.024,0.197-1.414,0.587
		c-0.391,0.39-0.586,0.903-0.586,1.415v18c0,0.512,0.195,1.022,0.586,1.413C112.976,38.806,113.488,39,114,39h8
		c0.512,0,1.024-0.194,1.414-0.585c0.391-0.39,0.586-0.9,0.586-1.413v-18C124,18.491,123.805,17.978,123.414,17.587z M116,18.488
		c0-0.124,0.047-0.25,0.142-0.345c0.094-0.095,0.219-0.143,0.343-0.143h3.037c0.122,0,0.245,0.048,0.338,0.142
		c0.093,0.093,0.14,0.216,0.14,0.339v0.017c0,0.129-0.049,0.257-0.148,0.355c-0.098,0.099-0.228,0.147-0.357,0.147h-3.011
		c-0.124,0-0.249-0.046-0.343-0.141c-0.094-0.093-0.141-0.217-0.141-0.341V18.488z M118,38.002c-0.552,0-1-0.448-1-1
		c0-0.552,0.448-1,1-1s1,0.448,1,1C119,37.554,118.552,38.002,118,38.002z M123,35h-10V20h10V35z"/>
</g>
<g id="about-3">
	<circle id="base_6_" fill="#2BACE2" cx="50" cy="140" r="40"/>
	<g>
		<path fill="#ECF2F0" d="M72,152c0,0.512-0.195,1.023-0.586,1.414S70.512,154,70,154H30c-0.512,0-1.023-0.195-1.414-0.586
			S28,152.512,28,152v-26.667c0-0.512,0.195-1.023,0.586-1.414s0.902-0.586,1.414-0.586h40c0.512,0,1.023,0.195,1.414,0.586
			S72,124.821,72,125.333V152z"/>
		<path fill="#2D424F" d="M72,148.667v-23.334c0-0.512-0.195-1.023-0.586-1.414s-0.902-0.586-1.414-0.586H30
			c-0.512,0-1.023,0.195-1.414,0.586C28.195,124.31,28,124.821,28,125.333v23.333L72,148.667L72,148.667z"/>
		<rect x="30" y="125.333" fill="#486174" width="40" height="20.667"/>
		<rect x="45.333" y="152" fill="#ECF2F0" width="10.667" height="5.333"/>
		<rect x="45.333" y="154" fill="#DEE3E1" width="10.667" height="2"/>
		<path fill="#C4C9C8" d="M58.191,160c0,0.171-0.065,0.341-0.195,0.471c-0.13,0.13-0.301,0.195-0.471,0.195H43.803
			c-0.171,0-0.341-0.065-0.471-0.195c-0.13-0.13-0.195-0.301-0.195-0.471l0.027-0.455h15.005L58.191,160z"/>
		<rect x="45.333" y="156.667" fill="#ECF2F0" width="10.667" height="3.333"/>
		<path fill="#ECF2F0" d="M58.093,159.426c0.093,0.093,0.126,0.237,0.073,0.367c-0.055,0.129-0.18,0.207-0.312,0.207H43.468
			c-0.13,0-0.254-0.077-0.307-0.205c-0.053-0.127-0.02-0.269,0.071-0.361l1.434-0.767h12L58.093,159.426z"/>
		<path fill="#ECF2F0" d="M45.333,157.28c0,0,0.014,0.901-0.671,1.387h0.984L45.333,157.28z"/>
		<path fill="#ECF2F0" d="M55.995,157.28c0,0-0.014,0.901,0.671,1.387h-0.984L55.995,157.28z"/>
	</g>
</g>
<g id="about-2">
	<circle id="base_7_" fill="#ED5F5F" cx="50" cy="50" r="40"/>
	<g>
		<polygon fill="#A8E0F9" points="72,46.667 28,46.667 38.129,35.333 61.871,35.333 		"/>
		<polygon fill="#00ACE9" points="72,46.667 50,72.667 28,46.667 		"/>
		<rect x="38.129" y="35.333" fill="#8ED8F7" width="23.871" height="11.333"/>
		<polygon fill="#27BCED" points="38.129,46.667 50,72.667 62,46.667 		"/>
		<polygon fill="#DEF3FC" points="50,35.333 38.129,46.667 62,46.667 		"/>
	</g>
</g>
</svg>
