<?xml version="1.0" encoding="utf-8"?>
<!-- Generator: Adobe Illustrator 17.0.0, SVG Export Plug-In . SVG Version: 6.00 Build 0)  -->
<!DOCTYPE svg PUBLIC "-//W3C//DTD SVG 1.1//EN" "http://www.w3.org/Graphics/SVG/1.1/DTD/svg11.dtd">
<svg version="1.1" id="Layer_1" xmlns="http://www.w3.org/2000/svg" xmlns:xlink="http://www.w3.org/1999/xlink" x="0px" y="0px"
	 width="430px" height="415px" viewBox="0 0 430 415" enable-background="new 0 0 430 415" xml:space="preserve">
<path fill="#DEF3FC" d="M99.963,60.295L62.415,248.038l-29.84,14.469c-6.227,3.019-11.713,7.752-15.656,14.048
	c-3.945,6.296-5.811,13.298-5.811,20.219v64.998c0,3.247,1.239,6.497,3.719,8.977c2.478,2.478,5.727,3.717,8.975,3.717h42.444
	l2.885-12.693h88.802l4.905,12.693h133.879l3.854-12.693h92.652l5.44,12.693h9.124c2.436,0,4.873-0.93,6.731-2.789
	c1.859-1.857,2.789-4.295,2.789-6.731v-3.173V247.527V60.295H99.963z"/>
<rect x="216" y="102" fill="#FFFFFF" width="178" height="146"/>
<g>
	<circle fill="#ED5F5F" cx="228.5" cy="132.5" r="12.5"/>
	<circle fill="#ED5F5F" cx="278.5" cy="133.5" r="12.5"/>
	<circle fill="#ED5F5F" cx="329.5" cy="133.5" r="12.5"/>
	<circle fill="#ED5F5F" cx="381" cy="134" r="13"/>
	<circle fill="#E6E6E6" cx="253.5" cy="132.5" r="12.5"/>
	<circle fill="#E6E6E6" cx="304" cy="134" r="13"/>
	<circle fill="#E6E6E6" cx="355" cy="133" r="13"/>
	<rect x="216" y="101" fill="#ED4747" width="178" height="32"/>
	<rect x="291" y="101" fill="#FFFFFF" width="26" height="32"/>
	<rect x="342" y="101" fill="#FFFFFF" width="26" height="32"/>
	<rect x="241" y="101" fill="#FFFFFF" width="25" height="32"/>
</g>
<polygon fill="#F0FAFF" points="180.886,247.527 77.749,247.527 107.896,101.55 180.886,101.55 "/>
<polygon opacity="0.8" fill="#FFFFFF" enable-background="new    " points="180.879,245.99 98.377,147.613 104.131,119.748 
	180.879,215.843 "/>
<rect x="290.369" y="306.236" fill="#97A1A8" width="113.98" height="63.469"/>
<rect x="60.295" y="306.236" fill="#97A1A8" width="113.98" height="63.469"/>
<path fill="#3A4D5C" d="M114,335c-22.057,0-40,17.944-40,40c0,22.057,17.943,40.001,40,40.001s40-17.944,40-40.001
	C154,352.944,136.057,335,114,335z"/>
<path fill="#ECF0F1" d="M114,394.201c-10.587,0-19.2-8.612-19.2-19.201c0-10.588,8.613-19.2,19.2-19.2
	c10.588,0,19.201,8.612,19.201,19.2C133.2,385.589,124.587,394.201,114,394.201z"/>
<g>
	<path fill="#ED5F5F" d="M11.107,303.062v58.709c0,3.247,1.239,6.497,3.719,8.977c2.478,2.478,5.727,3.717,8.975,3.717h39.668
		c0-25.414,25.361-46.015,50.774-46.015c25.414,0,50.775,20.601,50.775,46.015h130.11c0-25.414,23.774-46.015,49.188-46.015
		s49.188,20.601,49.188,46.015h14.28c2.436,0,4.873-0.93,6.731-2.789c1.859-1.857,2.789-4.295,2.789-6.731v-61.882H11.107V303.062z"
		/>
</g>
<path fill="#3A4D5C" d="M344,415c-22.056,0-40-17.944-40-40s17.944-40,40-40s40,17.944,40,40S366.056,415,344,415z"/>
<path fill="#ECF0F1" d="M344,394.2c-10.588,0-19.2-8.612-19.2-19.2s8.612-19.2,19.2-19.2c10.587,0,19.199,8.612,19.199,19.2
	S354.587,394.2,344,394.2z"/>
<path fill="#E1E6E6" d="M49,353.572c0,2.413-0.927,4.825-2.778,6.666C44.37,362.08,41.941,363,39.516,363H9.484
	c-2.428,0-4.854-0.92-6.706-2.762C0.927,358.397,0,355.985,0,353.572v-3.144c0-2.413,0.927-4.826,2.778-6.667S7.057,341,9.484,341
	h30.031c2.426,0,4.854,0.921,6.706,2.762S49,348.016,49,350.429V353.572z"/>
<ellipse fill="#FFC614" cx="19" cy="306" rx="8" ry="20"/>
<rect x="213" y="242" fill="#CCE0E8" width="184" height="12"/>
<g id="puppet">
	<g>
		<g>
			<defs>
				<rect id="SVGID_1_" x="215.793" y="69.815" width="177.713" height="172.952"/>
			</defs>
			<clipPath id="SVGID_2_">
				<use xlink:href="#SVGID_1_"  overflow="visible"/>
			</clipPath>
			<g clip-path="url(#SVGID_2_)">
				<path fill="#FFC50C" d="M330.946,225.3l11.026,45.638c1.401,6.016,0.318,12.576-3.547,18.029
					c-3.849,5.427-13.205,8.853-15.836,9.286c-2.641,0.444-8.966,1.468-20.077,1.487c-11.1,0.05-17.443-0.922-20.074-1.357
					c-2.646-0.426-12.02-3.775-15.904-9.189c-3.893-5.416-5.018-11.971-3.657-17.997l10.862-45.896L330.946,225.3L330.946,225.3z"/>
				<path fill="#FFC50C" d="M348.654,198.891h-92.428v-46.722c0-9.878,3.771-19.754,11.306-27.291
					c7.537-7.536,17.413-11.305,27.29-11.305h15.236c9.877,0,19.757,3.769,27.292,11.305c7.535,7.537,11.304,17.413,11.304,27.291
					L348.654,198.891L348.654,198.891z"/>
				<polygon fill="#FFFFFF" points="320.517,115.83 285.609,115.83 285.609,99.963 303.062,92.029 320.517,99.963 				"/>
				<polygon fill="#00ACE9" points="303.062,101.55 285.609,107.896 285.609,104.723 303.062,98.376 				"/>
				<polyline fill="#00ACE9" points="320.517,104.723 303.062,98.376 303.062,101.55 320.517,107.896 				"/>
				<polygon fill="#F2F2F2" points="284.022,115.83 284.022,107.896 296.716,103.137 303.062,107.896 307.816,103.135 
					322.104,107.896 322.104,115.83 				"/>
				<polygon opacity="0.2" enable-background="new    " points="302.988,92.079 302.988,115.88 322.029,115.88 322.029,107.946 
					320.442,107.417 320.442,100.013 				"/>
				<path fill="#FFC50C" d="M368.462,190.798c0,9.098-3.47,18.195-10.409,25.138c-6.948,6.94-16.043,10.412-25.14,10.412H271.97
					c-9.097,0-18.194-3.472-25.136-10.412c-6.942-6.942-10.413-16.04-10.413-25.138v1.999c0-9.098,3.471-18.194,10.413-25.136
					c6.941-6.942,16.039-10.413,25.136-10.413h60.943c9.097,0,18.191,3.471,25.14,10.413c6.939,6.941,10.409,16.038,10.409,25.136
					L368.462,190.798L368.462,190.798z"/>
				<g>
					<path fill="#30414D" d="M303.062,233.094l-15.2,7.043c-0.475,0.22-1.048,0.199-1.521-0.103
						c-0.475-0.302-0.732-0.813-0.732-1.337v-12.486c0-0.523,0.258-1.035,0.732-1.337c0.473-0.303,1.046-0.323,1.521-0.103
						l15.2,7.042V233.094z"/>
					<path fill="#30414D" d="M303.062,233.094l15.201,7.043c0.475,0.22,1.047,0.199,1.52-0.103c0.475-0.302,0.733-0.813,0.733-1.337
						v-12.486c0-0.523-0.259-1.035-0.733-1.337c-0.473-0.303-1.045-0.323-1.52-0.103l-15.201,7.042V233.094z"/>
					<path fill="#30414D" d="M307.823,233.247c0,0.812-0.311,1.624-0.93,2.244c-0.62,0.619-1.433,0.93-2.244,0.93h-3.173
						c-0.812,0-1.624-0.311-2.244-0.93c-0.62-0.62-0.93-1.432-0.93-2.244v-1.587c0-0.812,0.31-1.624,0.93-2.243
						c0.62-0.62,1.432-0.93,2.244-0.93h3.173c0.812,0,1.624,0.31,2.244,0.93c0.619,0.619,0.93,1.432,0.93,2.243V233.247z"/>
				</g>
				<g>
					<circle fill="#3F1926" cx="288.222" cy="158.519" r="3.555"/>
					<circle fill="#3F1926" cx="316.661" cy="158.519" r="3.555"/>
				</g>
				<path fill="#F58A68" d="M350.688,186.703c0,6.499-2.48,12.997-7.439,17.954c-4.957,4.958-11.455,7.438-17.954,7.438h-45.706
					c-6.499,0-12.996-2.48-17.955-7.438c-4.957-4.957-7.438-11.455-7.438-17.954v-1.017c0-6.498,2.48-12.995,7.438-17.953
					c4.959-4.958,11.456-7.438,17.955-7.438h45.706c6.499,0,12.997,2.479,17.954,7.438c4.959,4.958,7.439,11.455,7.439,17.953
					V186.703z"/>
			</g>
		</g>
	</g>
	<path opacity="0.1" enable-background="new    " d="M352.407,242.896c11.015,17.317-2.868,23.931-14.539,17.094
		c-11.668-6.838-6.243-27.008-6.243-27.008S345.106,231.412,352.407,242.896z"/>
	<path fill="#FFC50C" d="M353.994,239.723c11.014,17.317-2.868,23.931-14.539,17.095c-11.668-6.839-9.199-30.751-9.199-30.751
		S346.692,228.239,353.994,239.723z"/>
	<path opacity="0.1" enable-background="new    " d="M256.189,247.244c-7.141,19.242,7.738,22.713,17.798,13.67
		c9.375-8.428-0.676-27.865-0.676-27.865S260.925,234.487,256.189,247.244z"/>
	<path fill="#FFC50C" d="M253.016,245.657c-7.14,19.242,7.819,22.802,17.799,13.67c9.977-9.131,2.553-31.996,2.553-31.996
		S257.752,232.9,253.016,245.657z"/>
</g>
<polygon fill="#8ACFC0" points="122,44.211 62,60 62,0 122,15.79 "/>
<path fill="#8ACFC0" d="M144,40.711c0,0.837-0.32,1.676-0.959,2.314c-0.64,0.639-1.477,0.959-2.314,0.959H126V16h14.727
	c0.838,0,1.675,0.319,2.314,0.959c0.639,0.638,0.959,1.476,0.959,2.313V40.711z"/>
<rect x="117" y="8" fill="#3A4D5C" width="10" height="55"/>
<rect x="189" y="61" opacity="0.1" fill="#202B33" enable-background="new    " width="3" height="313"/>
<path fill="#CCE0E8" d="M422,70.257c0,1.216-0.464,2.433-1.394,3.361c-0.928,0.928-2.144,1.392-3.359,1.392H96.754
	c-1.217,0-2.433-0.464-3.361-1.392S92,71.473,92,70.257v-6.503c0-1.216,0.464-2.433,1.393-3.361S95.537,59,96.754,59h320.493
	c1.216,0,2.432,0.464,3.359,1.393c0.93,0.928,1.394,2.145,1.394,3.361L422,70.257L422,70.257z"/>
<path fill="#D43D3D" d="M343.5,331.649c35.266,0,42.249,35.179,42.249,35.179l0.196,2.144c0.133,1.485,0.802,2.928,1.988,4.012
	c1.189,1.086,2.685,1.62,4.177,1.62H396c0-28.948-23.552-52.5-52.5-52.5s-52.5,23.552-52.5,52.5h3.834
	c1.513,0,3.033-0.537,4.248-1.628c1.213-1.092,1.907-2.546,2.068-4.052l0.364-3.419C301.515,365.505,310.863,331.649,343.5,331.649z
	"/>
<path fill="#E1E6E6" d="M430,353.838c0,2.436-0.93,4.873-2.789,6.73c-1.857,1.859-4.295,2.789-6.731,2.789H406.2
	c-2.436,0-4.873-0.93-6.731-2.789c-1.859-1.857-2.789-4.295-2.789-6.73v-3.174c0-2.436,0.93-4.873,2.789-6.731
	c1.858-1.859,4.296-2.789,6.731-2.789h14.28c2.437,0,4.874,0.93,6.731,2.789c1.859,1.858,2.789,4.296,2.789,6.731V353.838z"/>
<path fill="none" d="M114.243,331.624c-23.622,0-42.841,19.219-42.841,42.841h85.683
	C157.085,350.843,137.866,331.624,114.243,331.624z"/>
<path fill="#D43D3D" d="M113.5,331.649c35.266,0,42.249,35.179,42.249,35.179l0.196,2.143c0.134,1.485,0.802,2.928,1.99,4.012
	c1.189,1.086,2.684,1.621,4.176,1.621H166c0-28.949-23.551-52.5-52.5-52.5c-28.948,0-52.5,23.551-52.5,52.5h3.834
	c1.514,0,3.032-0.538,4.248-1.629c1.213-1.092,1.908-2.546,2.07-4.052l0.363-3.418C71.515,365.505,80.863,331.649,113.5,331.649z"/>
</svg>
